<?xml version="1.0" encoding="utf-8"?>
<!-- Generator: Adobe Illustrator 15.1.0, SVG Export Plug-In . SVG Version: 6.00 Build 0)  -->
<!DOCTYPE svg PUBLIC "-//W3C//DTD SVG 1.0//EN" "http://www.w3.org/TR/2001/REC-SVG-20010904/DTD/svg10.dtd">
<svg version="1.0" id="Layer_1" xmlns="http://www.w3.org/2000/svg" xmlns:xlink="http://www.w3.org/1999/xlink" x="0px" y="0px"
	 width="445.006px" height="445.003px" viewBox="0 0 445.006 445.003" enable-background="new 0 0 445.006 445.003"
	 xml:space="preserve">
<g>
	<path fill="#ff8207" d="M379.836,65.17C337.811,23.145,281.936,0,222.503,0S107.195,23.145,65.17,65.169
		C23.145,107.195,0,163.07,0,222.502c0,59.432,23.145,115.307,65.17,157.333c42.025,42.024,97.9,65.168,157.333,65.168
		s115.308-23.144,157.333-65.168c42.025-42.025,65.17-97.9,65.17-157.333S421.861,107.195,379.836,65.17z M328.184,386.908
		l-6.818-11.812c-2.574-4.459-8.273-5.985-12.732-3.412c-4.457,2.574-5.984,8.273-3.41,12.731l6.834,11.836
		c-22.457,11.621-47.438,19.015-73.887,21.122v-19.368c0-8.652-7.016-15.666-15.667-15.666c-8.652,0-15.666,7.014-15.666,15.666
		v19.368c-26.45-2.107-51.431-9.501-73.888-21.122l6.834-11.836c2.574-4.458,1.047-10.158-3.41-12.731
		c-4.458-2.574-10.158-1.047-12.731,3.411l-6.819,11.813c-23.505-15.161-43.564-35.221-58.726-58.725l11.813-6.82
		c4.457-2.573,5.985-8.273,3.411-12.73c-2.573-4.458-8.273-5.985-12.73-3.411l-11.838,6.834
		c-11.622-22.457-19.016-47.438-21.123-73.888h19.37c8.652,0,15.667-7.014,15.667-15.666s-7.015-15.667-15.667-15.667h-19.37
		c2.107-26.449,9.501-51.43,21.123-73.887l11.838,6.834c4.457,2.574,10.157,1.047,12.73-3.411c2.574-4.457,1.046-10.157-3.411-12.73
		l-11.813-6.82c15.162-23.505,35.221-43.564,58.726-58.726l6.82,11.813c2.573,4.458,8.273,5.985,12.731,3.411
		c4.457-2.573,5.984-8.273,3.41-12.731l-6.834-11.836c22.457-11.622,47.438-19.016,73.888-21.123v19.368
		c0,8.652,7.014,15.667,15.666,15.667c8.652,0,15.667-7.015,15.667-15.667V27.629c26.449,2.107,51.431,9.501,73.887,21.122
		l-6.834,11.837c-2.574,4.458-1.047,10.157,3.41,12.73c4.459,2.574,10.158,1.047,12.732-3.411l6.818-11.812
		c23.505,15.161,43.564,35.22,58.727,58.725l-11.813,6.819c-4.459,2.574-5.986,8.273-3.412,12.731
		c2.574,4.457,8.273,5.984,12.73,3.411l11.838-6.835c11.622,22.457,19.016,47.438,21.123,73.888h-19.369
		c-8.652,0-15.666,7.015-15.666,15.667s7.014,15.666,15.666,15.666h19.369c-2.107,26.45-9.501,51.432-21.123,73.889l-11.838-6.835
		c-4.457-2.574-10.156-1.047-12.73,3.411s-1.047,10.157,3.412,12.731l11.813,6.819C371.748,351.688,351.688,371.747,328.184,386.908
		z"/>
	<path fill="#ff8207" d="M144.176,264.933l20.09-18.914c13.392-12.252,22.742-21.691,28.05-28.317
		c5.306-6.625,9.225-13.09,11.754-19.395c2.528-6.304,3.794-13.053,3.794-20.25c0-8.263-2.067-15.601-6.198-22.013
		c-4.132-6.412-9.938-11.397-17.417-14.96c-7.48-3.562-16.101-5.343-25.86-5.343c-7.409,0-14.104,0.731-20.089,2.19
		c-5.984,1.461-11.506,3.544-16.563,6.251c-5.059,2.708-11.434,7.338-19.127,13.892l17.952,21.265
		c6.197-5.129,12.145-9.083,17.845-11.861c5.699-2.778,11.576-4.167,17.632-4.167c5.771,0,10.382,1.533,13.838,4.595
		c3.455,3.064,5.183,7.73,5.183,13.999c0,4.204-0.784,8.265-2.351,12.182c-1.568,3.919-4.133,8.175-7.694,12.77
		c-3.563,4.595-11.149,12.841-22.761,24.738l-39.217,39.645v22.975h109.209v-27.783h-68.068V264.933z"/>
	<path fill="#ff8207" d="M321.881,137.985h-30.455l-68.495,100.875v22.975h66.679v32.378h32.271v-32.378h18.807v-25.646h-18.807
		V137.985z M290.144,190.452c-0.357,8.407-0.534,14.818-0.534,19.234v26.502h-37.614l28.639-43.278
		c3.703-5.557,6.874-11.255,9.51-17.097h0.855C290.785,177.167,290.5,182.047,290.144,190.452z"/>
</g>
</svg>
