<?xml version="1.0" encoding="utf-8"?>
<!-- Generator: Adobe Illustrator 15.1.0, SVG Export Plug-In . SVG Version: 6.00 Build 0)  -->
<!DOCTYPE svg PUBLIC "-//W3C//DTD SVG 1.0//EN" "http://www.w3.org/TR/2001/REC-SVG-20010904/DTD/svg10.dtd">
<svg version="1.0" id="Layer_1" xmlns="http://www.w3.org/2000/svg" xmlns:xlink="http://www.w3.org/1999/xlink" x="0px" y="0px"
	 width="503px" height="493.309px" viewBox="0 0 503 493.309" enable-background="new 0 0 503 493.309" xml:space="preserve">
<circle fill="#19a1ce" cx="101.812" cy="272.563" r="29.646"/>
<circle fill="#19a1ce" cx="185.479" cy="272.563" r="29.646"/>
<circle fill="#19a1ce" cx="269.145" cy="272.563" r="29.646"/>
<path fill="#19a1ce" d="M447.653,0H320.5h-1H180.206c-30.519,0-55.347,24.829-55.347,55.348v76.319H55.347
	C24.829,131.667,0,156.496,0,187.014V357.32c0,28.372,21.459,51.827,49,54.985V442v51.308l42.289-29.053l75.093-51.589h156.413
	c30.52,0,55.347-24.828,55.347-55.347v-47.795l33.57,23.063L454,361.641v-51.308v-29.694c27.541-3.158,49-26.613,49-54.985V55.347
	C503,24.829,478.172,0,447.653,0z M351.141,357.32c0,15.655-12.69,28.347-28.347,28.347H158l-82,56.335v-56.335H55.347
	C39.691,385.667,27,372.976,27,357.32V187.014c0-15.655,12.691-28.348,28.347-28.348H182.5h1h139.294
	c15.655,0,28.347,12.691,28.347,28.348V357.32z M476,225.653C476,241.309,463.309,254,447.653,254H427v56.334l-48.859-33.565
	v-89.754c0-30.519-24.827-55.348-55.347-55.348H183.5h-1h-30.641V55.347C151.859,39.692,164.55,27,180.206,27H319.5h1h127.153
	C463.309,27,476,39.691,476,55.347V225.653z"/>
</svg>
