<?xml version="1.0" encoding="utf-8"?>
<!-- Generator: Adobe Illustrator 15.1.0, SVG Export Plug-In . SVG Version: 6.00 Build 0)  -->
<!DOCTYPE svg PUBLIC "-//W3C//DTD SVG 1.0//EN" "http://www.w3.org/TR/2001/REC-SVG-20010904/DTD/svg10.dtd">
<svg version="1.0" id="Layer_1" xmlns="http://www.w3.org/2000/svg" xmlns:xlink="http://www.w3.org/1999/xlink" x="0px" y="0px"
	 width="1026px" height="1024px" viewBox="0 0 1026 1024" enable-background="new 0 0 1026 1024" xml:space="preserve">
<path fill="#0083CD" d="M950.853,7.016c18.036-4.677,34.401-1.671,49.097,9.017c14.695,11.356,22.043,26.052,22.043,44.086v774.512
	c0,16.031-5.344,30.727-16.031,44.086s-23.713,22.043-39.076,26.051L547.065,1018.99c-6.012,2.672-12.691,4.008-20.039,4.008
	c-7.349,0.668-13.36,1.002-18.035,1.002c-7.348,0-14.361-0.334-21.041-1.002c-7.348-1.336-13.693-2.672-19.037-4.008L58.112,904.767
	c-15.364-4.008-28.055-12.691-38.074-26.051C9.351,865.357,4.007,850.662,4.007,834.631V62.122c0-19.371,7.348-34.4,22.043-45.088
	C40.746,5.677,57.444,2.338,76.147,7.014l408.798,114.223c5.344,1.336,12.691,2.004,22.043,2.004s17.033-0.668,23.045-2.004
	L950.853,7.016z M479.933,956.87V185.364c-2.672-0.668-5.01-1.002-7.014-1.002l-6.012-2.004L66.124,71.141v763.491
	c0,1.336,1.002,3.006,3.006,5.009l5.009,5.009l407.795,112.219h-2.004L479.933,956.87z M957.867,834.632V71.14L544.06,182.357
	v770.504L950.854,844.65c2.004-1.336,3.673-3.006,5.009-5.009c2.004-2.004,3.006-3.674,3.006-5.009L957.867,834.632L957.867,834.632
	z M642.25,369.724c-6.68,0-12.691-2.338-18.035-7.015c-6.011-4.008-9.686-9.686-11.021-17.034
	c-2.672-8.015-2.004-15.696,2.004-23.045c4.676-8.015,11.355-13.024,20.039-15.028l223.437-63.123
	c8.016-2.004,15.697-1.002,23.045,3.006c7.349,4.008,12.358,10.688,15.029,20.039c2.672,8.016,2.004,15.697-2.004,23.045
	c-4.676,7.348-11.355,12.357-20.039,15.029L650.266,367.72c-1.336,1.336-2.672,2.004-4.008,2.004H642.25L642.25,369.724z
	 M642.25,560.096c-6.68,0-12.691-2.004-18.035-6.013c-6.011-4.676-10.353-10.688-13.024-18.034
	c-2.004-8.016-1.002-15.697,3.006-23.045c4.008-7.349,10.688-12.358,20.039-15.029l222.434-62.122
	c8.016-2.672,15.697-2.004,23.045,2.004c8.016,4.676,13.025,11.355,15.029,20.039c2.672,8.016,2.004,15.697-2.004,23.045
	c-4.676,8.016-11.355,13.025-20.039,15.029l-222.435,63.123c-1.336,0.668-2.672,1.002-4.008,1.002L642.25,560.096L642.25,560.096z
	 M642.25,751.469c-6.68,0-12.691-2.004-18.035-6.013c-6.011-4.676-10.353-10.688-13.024-18.034
	c-2.004-8.016-1.002-15.697,3.006-23.045c4.008-8.016,10.688-13.359,20.039-16.031l222.434-62.122
	c8.016-2.672,15.697-2.004,23.045,2.004c8.016,4.676,13.025,11.355,15.029,20.039c2.672,8.016,2.004,15.697-2.004,23.045
	c-4.676,8.016-11.355,13.359-20.039,16.031l-222.435,62.122c-1.336,0.668-2.672,1.002-4.008,1.002
	C644.922,751.135,643.586,751.469,642.25,751.469L642.25,751.469z M396.771,307.602c8.016,2.004,14.361,6.68,19.037,14.027
	c4.677,8.016,5.679,16.699,3.007,26.052c-1.337,6.011-4.677,11.021-10.021,15.028c-6.012,4.677-12.691,7.015-20.039,7.015h-3.006
	l-5.009-2.004l-223.437-62.122c-8.684-2.672-15.029-7.349-19.037-14.028c-4.676-7.348-5.678-15.363-3.006-24.047
	c1.336-9.353,6.012-16.032,14.028-20.039c8.016-4.008,16.032-5.01,24.047-3.006L396.771,307.602z M396.771,497.974
	c8.016,2.672,14.361,7.682,19.037,15.029c4.677,8.015,5.679,16.364,3.007,25.049c-1.337,6.68-4.677,12.023-10.021,16.031
	c-6.012,4.008-12.691,6.012-20.039,6.012h-3.006l-5.009-1.002L157.303,495.97c-8.684-2.004-15.029-6.681-19.037-14.028
	c-4.676-7.348-5.678-15.363-3.006-24.047c1.336-8.684,6.012-15.363,14.028-20.039c8.015-4.008,16.031-4.676,24.047-2.004
	L396.771,497.974z M396.771,688.346c8.016,2.672,14.361,7.682,19.037,15.028c4.677,8.016,5.679,16.365,3.007,25.05
	c-1.337,6.68-4.677,12.023-10.021,16.03c-6.012,4.677-12.691,7.015-20.039,7.015h-3.006c-2.004-0.668-3.674-1.336-5.009-2.004
	l-223.437-62.122c-8.684-2.672-15.029-7.349-19.037-14.028c-4.676-7.348-5.678-15.697-3.006-25.049
	c1.336-8.684,6.012-15.029,14.028-19.037c8.015-4.676,16.031-5.678,24.047-3.006L396.771,688.346z"/>
</svg>
