<?xml version="1.0" encoding="utf-8"?>
<!-- Generator: Adobe Illustrator 15.1.0, SVG Export Plug-In . SVG Version: 6.00 Build 0)  -->
<!DOCTYPE svg PUBLIC "-//W3C//DTD SVG 1.0//EN" "http://www.w3.org/TR/2001/REC-SVG-20010904/DTD/svg10.dtd">
<svg version="1.0" id="Layer_1" xmlns="http://www.w3.org/2000/svg" xmlns:xlink="http://www.w3.org/1999/xlink" x="0px" y="0px"
	 width="1026px" height="1024px" viewBox="0 0 1026 1024" enable-background="new 0 0 1026 1024" xml:space="preserve">
<path fill="#19a1ce" d="M968.165,1024.002L678.468,736.315c-35.541,28.835-75.441,51.301-119.701,67.396
	c-44.93,16.094-91.871,24.141-140.824,24.141c-57.672,0-111.654-10.729-161.949-32.189c-50.965-22.129-95.225-51.636-132.778-88.519
	C84.991,669.59,55.149,625.666,33.69,575.371C11.561,525.077,0.496,471.428,0.496,414.428c0-57.672,10.729-111.319,32.189-160.943
	c22.129-50.295,51.971-94.219,89.525-131.772c38.224-37.553,82.483-67.06,132.778-88.519C305.953,11.064,360.271,0,417.943,0
	c57,0,110.647,10.729,160.942,32.189c50.966,22.129,95.225,51.971,132.778,89.524c38.224,37.554,68.065,81.143,89.525,130.767
	c21.459,50.295,31.854,104.277,31.183,161.949c0,50.295-8.383,97.907-25.147,142.837c-17.435,45.601-41.241,86.507-71.418,122.719
	l289.697,287.687L968.165,1024.002z M417.941,718.211c41.576,0,80.807-8.048,117.689-24.142
	c36.884-16.094,69.072-37.888,96.566-65.383c28.165-27.495,50.295-59.684,66.389-96.566c16.094-36.212,24.477-75.106,25.147-116.684
	c0-41.577-8.048-80.807-24.142-117.69c-16.094-36.883-37.888-68.736-65.383-95.56c-28.165-27.495-60.689-49.289-97.572-65.383
	c-36.883-16.095-76.447-24.142-118.694-24.142c-42.248,0-81.813,8.047-118.695,24.142c-37.554,16.094-70.078,37.553-97.572,64.377
	c-28.165,27.494-49.959,59.683-65.383,96.565c-16.094,36.883-24.141,76.113-24.141,117.69c0,42.247,7.712,81.478,23.136,117.69
	c16.094,36.882,37.888,69.071,65.383,96.565c28.166,27.495,60.689,48.954,97.572,64.377
	C335.795,710.164,375.695,718.211,417.941,718.211L417.941,718.211z"/>
</svg>
