<?xml version="1.0" encoding="utf-8"?>
<!-- Generator: Adobe Illustrator 15.1.0, SVG Export Plug-In . SVG Version: 6.00 Build 0)  -->
<!DOCTYPE svg PUBLIC "-//W3C//DTD SVG 1.0//EN" "http://www.w3.org/TR/2001/REC-SVG-20010904/DTD/svg10.dtd">
<svg version="1.0" id="Layer_1" xmlns="http://www.w3.org/2000/svg" xmlns:xlink="http://www.w3.org/1999/xlink" x="0px" y="0px"
	 width="454.7px" height="489.373px" viewBox="0 0 454.7 489.373" enable-background="new 0 0 454.7 489.373" xml:space="preserve">
<g>
	<path fill="#edb340" d="M28,411.632V42.347C28,34.436,34.538,28,42.575,28H222.86v74.68c0,18.603,15.201,33.684,33.953,33.684
		h66.755v77.615h28V113.042L238.527,0H42.575C19.099,0,0,18.997,0,42.347v369.286c0,23.35,19.099,42.347,42.575,42.347h43.987v-28
		H42.575C34.538,425.979,28,419.543,28,411.632z"/>
	<path fill="#edb340" d="M425.624,233h-290.6c-16.059,0-29.076,13.018-29.076,29.076v198.22c0,16.058,13.018,29.076,29.076,29.076
		h290.6c16.059,0,29.076-13.019,29.076-29.076v-198.22C454.7,246.018,441.683,233,425.624,233z M313.393,266.434h15.925v61.952
		h30.462v13.15h-46.387V266.434z M141.512,266.434h17.568l16.182,27.021l15.874-27.021h17.157l-23.579,37.243l25.377,37.859h-18.185
		l-17.466-28.407l-17.466,28.407H139.92l24.914-38.732L141.512,266.434z M210.913,447.601h-15.874v-32.414h-29.743v32.414h-15.924
		v-75.103h15.924v29.435h29.743v-29.435h15.874V447.601z M276.246,385.752h-20.394v61.849h-15.925v-61.849h-20.394v-13.254h56.712
		V385.752z M283.528,282.718l-19.366,58.818h-14.589l-18.082-58.921h-0.463c0.65,11.986,0.977,19.982,0.977,23.989v34.932h-14.229
		v-75.103h21.678l17.773,57.432h0.309l18.853-57.432h21.678v75.103H283.22v-35.548c0-1.678,0.026-3.612,0.077-5.805
		c0.052-2.191,0.283-8.014,0.693-17.466H283.528z M365.223,447.601h-14.846v-35.548c0-1.678,0.026-3.612,0.077-5.805
		c0.052-2.191,0.283-8.014,0.693-17.466h-0.462l-19.366,58.818H316.73l-18.082-58.921h-0.463c0.65,11.986,0.977,19.982,0.977,23.989
		v34.932h-14.229v-75.103h21.678l17.773,57.432h0.309l18.853-57.432h21.678V447.601z M426.937,447.601H380.55v-75.103h15.925v61.952
		h30.462V447.601z"/>
</g>
</svg>
