<?xml version="1.0" standalone="no"?>
<!DOCTYPE svg PUBLIC "-//W3C//DTD SVG 20010904//EN"
 "http://www.w3.org/TR/2001/REC-SVG-20010904/DTD/svg10.dtd">
<svg version="1.0" xmlns="http://www.w3.org/2000/svg"
 width="1000.000000pt" height="1000.000000pt" viewBox="0 0 1000.000000 1000.000000"
 preserveAspectRatio="xMidYMid meet">
<metadata>
Created by potrace 1.11, written by Peter Selinger 2001-2013
</metadata>
<g transform="translate(0.000000,1000.000000) scale(0.100000,-0.100000)"
fill="#000000" stroke="none">
<path d="M539 9145 c-1 -5 -2 -1885 -3 -4178 l-2 -4167 4475 2 4474 3 1 4168
c1 2769 -2 4171 -9 4175 -18 11 -8935 8 -8936 -3z m8621 -314 c4 -1 5 -7641 1
-7699 -1 -10 -835 -12 -4153 -10 l-4153 3 0 3852 0 3852 20 3 c17 3 8272 1
8285 -1z"/>
<path d="M6569 7572 c-3 -54 -4 -5459 -1 -5470 3 -9 147 -12 676 -12 l673 0 0
2749 0 2750 -674 0 c-632 1 -673 0 -674 -17z"/>
<path d="M4330 5908 c-1 -18 -1 -3779 -1 -3800 1 -17 40 -18 676 -18 l675 0 0
1915 0 1915 -675 0 c-533 0 -675 -3 -675 -12z"/>
<path d="M2107 4642 c-16 -3 -17 -92 -17 -1278 l0 -1274 675 0 675 0 0 28 c1
36 1 2344 0 2447 l0 80 -658 0 c-362 0 -666 -1 -675 -3z"/>
</g>
</svg>
