<?xml version="1.0" standalone="no"?>
<!DOCTYPE svg PUBLIC "-//W3C//DTD SVG 20010904//EN"
 "http://www.w3.org/TR/2001/REC-SVG-20010904/DTD/svg10.dtd">
<svg version="1.0" xmlns="http://www.w3.org/2000/svg"
 width="400.000000pt" height="400.000000pt" viewBox="0 0 400.000000 400.000000"
 preserveAspectRatio="xMidYMid meet">
<metadata>
Created by potrace 1.11, written by Peter Selinger 2001-2013
</metadata>
<g transform="translate(0.000000,400.000000) scale(0.100000,-0.100000)"
fill="#000000" stroke="none">
<path d="M0 2000 l0 -2000 2000 0 2000 0 0 2000 0 2000 -2000 0 -2000 0 0
-2000z m3856 -1 l1 -1845 -1856 0 -1856 1 -2 1825 c-1 1004 0 1834 2 1846 l4
20 1853 0 1853 -1 1 -1846z"/>
<path d="M2699 3205 c-1 -26 -1 -2553 0 -2582 l1 -21 295 0 295 0 0 37 c1 42
1 2511 0 2556 l0 31 -295 -1 c-289 0 -295 0 -296 -20z"/>
<path d="M1704 1533 l1 -928 296 -1 296 -2 0 929 0 929 -297 0 -297 0 1 -927z"/>
<path d="M709 1823 c0 -21 0 -1155 1 -1194 l0 -27 295 0 295 0 1 41 c0 23 1
302 2 620 l2 577 -297 0 c-277 0 -298 -1 -299 -17z"/>
</g>
</svg>
