<svg version="1" xmlns="http://www.w3.org/2000/svg" width="1333.333" height="1333.333" viewBox="0 0 1000.000000 1000.000000"><path d="M54.2 74.5c-.4.5-.7 188.5-.7 417.8L53.4 909l447.5-.2 447.4-.3.1-415.7c.1-228.6-.1-416.5-.4-417.5-.5-1.8-16.4-1.8-446.8-1.8-296.5 0-446.6.3-447 1zm862.1 416c-.1 211.7-.2 385.3-.2 385.7-.1.5-187 .8-415.4.8H85.5V492.2c0-211.6.3-385.2.7-385.7.4-.7 140-1 415.5-1h414.8l-.2 385z"/><path d="M656.9 231.8c-.1.9-.2 124.7-.3 275l-.1 273.2h135.2l-.1-274.8-.1-274.7-67.2-.2c-62.2-.1-67.3 0-67.4 1.5zM433 400.7c-.4 29.2-.1 378.6.4 379 .4.4 125.4.7 133.4.4.9-.1 1.2-39.1 1.2-191.6V397H433v3.7zM219.3 524.8l-10.3.3V780l3.3.1c18 .3 130.9 0 131.3-.4.7-.6.7-253.7.1-254.3-.5-.5-108.9-1-124.4-.6z"/></svg>