<?xml version="1.0" encoding="utf-8"?>
<!-- Generator: Adobe Illustrator 15.1.0, SVG Export Plug-In . SVG Version: 6.00 Build 0)  -->
<!DOCTYPE svg PUBLIC "-//W3C//DTD SVG 1.0//EN" "http://www.w3.org/TR/2001/REC-SVG-20010904/DTD/svg10.dtd">
<svg version="1.0" id="Layer_1" xmlns:sketch="http://www.bohemiancoding.com/sketch/ns"
	 xmlns="http://www.w3.org/2000/svg" xmlns:xlink="http://www.w3.org/1999/xlink" x="0px" y="0px" width="146.888px"
	 height="170.079px" viewBox="-143.5 -79.629 146.888 170.079" enable-background="new -143.5 -79.629 146.888 170.079"
	 xml:space="preserve">
<title></title>
<desc></desc>
<g id="Page-1">
	<g id="Core" transform="translate(-86.000000, -127.000000)">
		<g id="content-copy" transform="translate(86.500000, 127.000000)">
			<path id="Shape" fill="#95BFD3" d="M-35.767-79.629h-92.771c-8.505,0-15.462,6.957-15.462,15.461V44.065h15.462V-64.167h92.771
				V-79.629L-35.767-79.629z M-12.574-48.706h-85.041c-8.505,0-15.459,6.957-15.459,15.461V74.988
				c0,8.501,6.954,15.462,15.459,15.462h85.041c8.5,0,15.462-6.961,15.462-15.462V-33.244C2.888-41.749-4.074-48.706-12.574-48.706
				L-12.574-48.706z M-12.574,74.988h-85.041V-33.244h85.041V74.988L-12.574,74.988z"/>
		</g>
	</g>
</g>
</svg>
