<?xml version="1.0" encoding="utf-8"?>
<!-- Generator: Adobe Illustrator 15.1.0, SVG Export Plug-In . SVG Version: 6.00 Build 0)  -->
<!DOCTYPE svg PUBLIC "-//W3C//DTD SVG 1.1//EN" "http://www.w3.org/Graphics/SVG/1.1/DTD/svg11.dtd">
<svg version="1.1" id="Layer_1" xmlns="http://www.w3.org/2000/svg" xmlns:xlink="http://www.w3.org/1999/xlink" x="0px" y="0px"
	 width="1024px" height="1024px" viewBox="0 0 1024 1024" enable-background="new 0 0 1024 1024" xml:space="preserve">
<path fill="#159FCE" d="M1007,724.287c-11.331-10.485-25.331-15.724-42-15.724H702c-8.666,20.964-23.331,38.229-44,51.793
	c-19.334,13.564-41.666,20.349-67,20.349H434c-25.333,0-48.333-6.784-69-20.349c-20-13.565-34.333-30.83-43-51.793H59
	c-15.333,0-29.333,5.24-42,15.724c-11.333,10.481-17,23.43-17,38.845v182.202c0,16.03,6,28.978,18,38.843
	C29.333,994.659,43,999.9,59,999.9h906c16.669,0,30.669-5.242,42-15.724c11.334-10.482,17-23.432,17-38.843V763.132
	C1024,747.718,1018.334,734.769,1007,724.287z M806.917,895.735c-11.224,11.227-25.003,16.842-41.339,16.842
	c-16.328,0-30.619-6.123-42.867-18.371c-11.227-11.232-16.842-25.521-16.842-42.872c0-16.33,6.123-30.619,18.373-42.867
	c11.229-11.229,25.008-16.843,41.336-16.843c16.336,0,30.624,6.125,42.872,18.374c11.229,11.227,16.84,25.515,16.84,42.869
	C825.292,869.195,819.167,883.488,806.917,895.735L806.917,895.735z M968.752,895.735c-13.268,11.227-28.066,16.842-44.402,16.842
	c-16.33,0-30.621-6.123-42.869-18.371c-11.227-11.232-16.84-25.521-16.84-42.872c0-16.33,6.122-30.619,18.372-42.867
	c11.229-11.229,25.521-16.843,42.867-16.843c16.336,0,30.622,6.125,42.872,18.374c11.229,11.227,16.84,25.515,16.84,42.869
	C985.592,868.176,979.979,882.467,968.752,895.735L968.752,895.735z M733.206,510.646H290.984
	c-10.186,1.44-17.467,6.59-21.818,15.473c-5.194,9.333-3.115,18.238,6.232,26.722L490.4,728.435
	c5.712,4.666,12.981,7.002,21.811,7.002c8.309,0,15.32-2.336,21.034-7.002l215-175.595c9.869-8.058,11.946-16.966,6.233-26.722
	C750.122,517.233,743.028,512.084,733.206,510.646L733.206,510.646z"/>
<g>
	<path fill="#159FCE" d="M184.532,421.974h-63.457V292.391H2.171v129.583h-63.662V121.735H2.171v117.672h118.904V121.735h63.457V421.974z"/>
	<path fill="#159FCE" d="M376.134,421.974h-63.662V174.719h-81.528v-52.983h226.719v52.983h-81.528V421.974z"/>
	<path fill="#159FCE" d="M630.987,421.974L558.7,186.424h-1.849c2.6,47.92,3.902,79.885,3.902,95.904v139.646h-56.885V121.735h86.662
		l71.055,229.594h1.232l75.367-229.594h86.663v300.238h-59.35v-142.11c0-6.707,0.103-14.443,0.308-23.206
		c0.205-8.76,1.13-32.036,2.772-69.823h-1.849L689.31,421.974H630.987z"/>
	<path fill="#159FCE" d="M900.421,421.974V121.735h63.662v247.666h121.779v52.572H900.421z"/>
</g>
</svg>
