<?xml version="1.0" encoding="utf-8"?>
<!-- Generator: Adobe Illustrator 22.0.0, SVG Export Plug-In . SVG Version: 6.00 Build 0)  -->
<svg version="1.1" id="Layer_1" xmlns="http://www.w3.org/2000/svg" xmlns:xlink="http://www.w3.org/1999/xlink" x="0px" y="0px"
	 viewBox="-153 -175.5 1118.9 859.8" style="enable-background:new -153 -175.5 1118.9 859.8;" xml:space="preserve">
<style type="text/css">
	.st0{fill:#19A1CE;}
</style>
<g>
	<path class="st0" d="M694.4,300.3c0,13.5-4.8,24.8-14.3,33.8c-4.5,5-9.8,8.6-15.8,10.9s-12,3.4-18,3.4s-12-1.1-18-3.4
		s-11.3-5.9-15.8-10.9L454.4,176.5v459.8c0,13.5-4.6,24.9-13.9,34.1s-20.6,13.9-34.1,13.9s-24.9-4.6-34.1-13.9s-13.9-20.6-13.9-34.1
		V176.5L200.1,334c-9,9.5-20.3,14.3-33.8,14.3s-24.8-4.8-33.8-14.3c-9.5-9-14.2-20.3-14.2-33.8s4.8-24.8,14.2-33.8l240-240
		c9-9.5,20.3-14.3,33.8-14.3s24.8,4.8,33.8,14.3l240,240C689.6,275.5,694.4,286.8,694.4,300.3z"/>
	<path class="st0" d="M-104.8-175.1c-26.6,0-48.3,21.6-48.3,48.3v278.3c0,26.6,21.6,48.3,48.3,48.3c26.6,0,48.3-21.6,48.3-48.3
		v-278.3C-56.5-153.5-78.2-175.1-104.8-175.1z"/>
	<path class="st0" d="M917.6-175.1c-26.6,0-48.3,21.6-48.3,48.3v278.3c0,26.6,21.6,48.3,48.3,48.3c26.6,0,48.3-21.6,48.3-48.3
		v-278.3C965.8-153.5,944.2-175.1,917.6-175.1z"/>
	<rect x="-104.8" y="-175.1" class="st0" width="1022.4" height="96.5"/>
</g>
</svg>
