<?xml version="1.0" encoding="utf-8"?>
<!-- Generator: Adobe Illustrator 22.0.0, SVG Export Plug-In . SVG Version: 6.00 Build 0)  -->
<svg version="1.1" id="Layer_1" xmlns="http://www.w3.org/2000/svg" xmlns:xlink="http://www.w3.org/1999/xlink" x="0px" y="0px"
	 viewBox="-2667.5 -856.1 1356 1473.1" style="enable-background:new -2667.5 -856.1 1356 1473.1;" xml:space="preserve">
<style type="text/css">
	.st0{fill:#2485d0;}
	.st1{fill:#FFFFFF;}
</style>
<g>
	<polygon class="st0" points="-1311.5,-340.5 -1827.1,-340.5 -1827.1,-856.1 	"/>
	<rect x="-2667.5" y="-790.7" class="st0" width="129" height="1101.6"/>
	<rect x="-1440.5" y="-340.5" class="st0" width="129" height="651.4"/>
	<rect x="-2667.5" y="-856.1" class="st0" width="840.4" height="129"/>
	<rect x="-2667.5" y="-15.5" class="st0" width="1356" height="632.5"/>
	<g>
		<path class="st1" d="M-2305.5,470.5h-63.5V340.9h-118.9v129.6h-63.7V170.3h63.7v117.7h118.9V170.3h63.5V470.5z"/>
		<path class="st1" d="M-2113.9,470.5h-63.7V223.3h-81.5v-53h226.7v53h-81.5V470.5z"/>
		<path class="st1" d="M-1859.1,470.5l-72.3-235.5h-1.8c2.6,47.9,3.9,79.9,3.9,95.9v139.6h-56.9V170.3h86.7l71.1,229.6h1.2
			l75.4-229.6h86.7v300.2h-59.3V328.4c0-6.7,0.1-14.4,0.3-23.2c0.2-8.8,1.1-32,2.8-69.8h-1.8l-77.4,235.1H-1859.1z"/>
		<path class="st1" d="M-1589.7,470.5V170.3h63.7v247.7h121.8v52.6H-1589.7z"/>
	</g>
</g>
</svg>
