<?xml version="1.0" encoding="utf-8"?>
<!-- Generator: Adobe Illustrator 15.1.0, SVG Export Plug-In . SVG Version: 6.00 Build 0)  -->
<!DOCTYPE svg PUBLIC "-//W3C//DTD SVG 1.1//EN" "http://www.w3.org/Graphics/SVG/1.1/DTD/svg11.dtd">
<svg version="1.1" id="Слой_1" xmlns="http://www.w3.org/2000/svg" xmlns:xlink="http://www.w3.org/1999/xlink" x="0px" y="0px"
	 width="170.079px" height="170.079px" viewBox="0 0 170.079 170.079" enable-background="new 0 0 170.079 170.079"
	 xml:space="preserve">
<g id="Download">
	<path fill="#159FCE" d="M164.764,116.929c-2.933,0-5.314,2.378-5.314,5.315v37.205H10.63v-37.205c0-2.938-2.382-5.315-5.315-5.315
		S0,119.307,0,122.244v42.52c0,2.938,2.382,5.315,5.315,5.315h159.449c2.933,0,5.315-2.378,5.315-5.315v-42.52
		C170.079,119.307,167.696,116.929,164.764,116.929z"/>
	<path fill="#159FCE" d="M81.159,126.002c2.068,2.045,5.528,2.065,7.597,0l37.199-36.676c2.097-2.076,2.092-5.439,0-7.513
		c-2.092-2.079-5.496-2.079-7.594,0l-28.033,27.642V5.315C90.328,2.38,87.925,0,84.959,0c-2.964,0-5.367,2.38-5.367,5.315v104.14
		L51.557,81.813c-2.1-2.079-5.497-2.079-7.592,0c-2.1,2.079-2.1,5.442,0,7.513L81.159,126.002z"/>
</g>
</svg>
