<?xml version="1.0" encoding="utf-8"?>
<!-- Generator: Adobe Illustrator 22.0.0, SVG Export Plug-In . SVG Version: 6.00 Build 0)  -->
<svg version="1.1" id="Layer_1" xmlns="http://www.w3.org/2000/svg" xmlns:xlink="http://www.w3.org/1999/xlink" x="0px" y="0px"
	 viewBox="-4828.4 -856.1 1356 1473.1" style="enable-background:new -4828.4 -856.1 1356 1473.1;" xml:space="preserve">
<style type="text/css">
	.st0{fill:#2485d0;}
	.st1{fill:#FFFFFF;}
</style>
<g>
	<polygon class="st0" points="-3472.4,-340.5 -3987.9,-340.5 -3987.9,-856.1 	"/>
	<rect x="-4828.4" y="-790.7" class="st0" width="129" height="1101.6"/>
	<rect x="-3601.4" y="-340.5" class="st0" width="129" height="651.4"/>
	<rect x="-4828.4" y="-856.1" class="st0" width="840.4" height="129"/>
	<rect x="-4828.4" y="-15.5" class="st0" width="1356" height="632.5"/>
	<g>
		<path class="st1" d="M-4266.2,510.6h-287.7v-53.1l185.4-265.7h-180.3V124h277.6v52.9l-185.1,266h190.1V510.6z"/>
		<path class="st1" d="M-4204.6,510.6V124h82v386.6H-4204.6z"/>
		<path class="st1" d="M-3758.3,244.6c0,41.6-13,73.4-39,95.5c-26,22-63,33.1-110.9,33.1h-35.2v137.5h-82V124h123.5
			c46.9,0,82.5,10.1,107,30.3C-3770.5,174.5-3758.3,204.6-3758.3,244.6z M-3943.3,306h27c25.2,0,44.1-5,56.6-14.9
			c12.5-10,18.8-24.5,18.8-43.5c0-19.2-5.2-33.4-15.7-42.6c-10.5-9.2-26.9-13.7-49.3-13.7h-37.3V306z"/>
	</g>
</g>
</svg>
