<?xml version="1.0" encoding="utf-8"?>
<!-- Generator: Adobe Illustrator 15.1.0, SVG Export Plug-In . SVG Version: 6.00 Build 0)  -->
<!DOCTYPE svg PUBLIC "-//W3C//DTD SVG 1.1//EN" "http://www.w3.org/Graphics/SVG/1.1/DTD/svg11.dtd">
<svg version="1.1" id="Layer_1" xmlns="http://www.w3.org/2000/svg" xmlns:xlink="http://www.w3.org/1999/xlink" x="0px" y="0px"
	 width="1024px" height="1024px" viewBox="0 0 1024 1024" enable-background="new 0 0 1024 1024" xml:space="preserve">
<g>
	<path fill="#159FCE" d="M965,1037H59c-24.193,0-46.063-8.936-63.311-25.854C-22.756,994.396-32.5,971.718-32.5,945.5v-197
		c0-25.163,9.17-47.634,26.52-64.981l0.638-0.638l0.672-0.602C14.078,665.505,35.5,657,59,657h285.369l7.988,20.894
		c6.417,16.785,16.774,30.279,31.659,41.249C399.132,729.813,415.485,735,434,735h157c18.214,0,33.705-5.035,47.356-15.392
		l0.834-0.612c15.456-10.969,26.071-24.414,32.453-41.104L679.632,657H965c25.162,0,47.632,9.17,64.981,26.519
		c17.349,17.35,26.519,39.819,26.519,64.981v197c0,25.162-9.17,47.632-26.519,64.981C1012.632,1027.83,990.162,1037,965,1037z
		 M39.38,730.098c-4.814,5.074-6.88,10.63-6.88,18.402v197c0,10.023,3.409,14.436,7.092,17.71l0.713,0.634l0.675,0.675
		C46.225,969.763,51.614,972,59,972h906c8.088,0,13.775-2.237,19.019-7.481c5.244-5.243,7.481-10.931,7.481-19.019v-197
		c0-8.088-2.237-13.775-7.481-19.019C978.775,724.237,973.088,722,965,722H722.521c-11.001,19.391-26.169,36.049-45.295,49.707
		C652.299,790.48,623.29,800,591,800H434c-32.091,0-61.634-9.419-87.81-27.996l-0.41-0.296
		c-18.636-13.667-33.495-30.328-44.366-49.708H59C54.581,722,47.789,722.855,39.38,730.098z M513,676
		c-19.928,0-37.557-7.096-50.981-20.519L185.415,378.877l-0.571-0.635c-20.608-22.897-25.473-50.04-13.739-76.502
		C182.759,273.294,206.736,257,237,257h125.5V13.5c0-19.928,7.095-37.557,20.519-50.981C397.097-51.559,414.726-59,434-59h157
		c17.601,0,34.543,6.463,48.993,18.69l1.032,0.873l0.956,0.956C656.059-24.403,663.5-6.428,663.5,13.5V257H789
		c29.534,0,53.09,16.188,64.78,44.457c12.71,27.496,7.346,55.879-14.799,78.024l-276,276C549.558,668.904,532.274,676,513,676z
		 M232.691,334.229l275.29,275.29c0.66,0.66,1.481,1.481,5.019,1.481c2.425,0,3.046-0.508,4.019-1.481l276-276
		c1.487-1.486,2.162-2.495,2.44-2.983c-0.097-0.375-0.312-1.037-0.778-2.014l-0.46-0.962l-0.396-0.989
		c-1.177-2.942-2.16-4.065-2.418-4.326c-0.294-0.09-1.079-0.245-2.406-0.245H598.5V13.5c0-2.263-0.403-3.617-1.643-5.107
		C593.663,6,591.831,6,591,6H434c-1.248,0-2.538,0-5.019,2.481c-0.66,0.66-1.481,1.481-1.481,5.019V322H237
		c-2.172,0-3.263,0.334-3.474,0.452c-0.249,0.183-1.244,1.351-2.35,4.118l-0.588,1.378c-0.631,1.388-0.659,2.007-0.659,2.013
		C229.985,330.288,230.626,331.825,232.691,334.229z"/>
</g>
</svg>
