<?xml version="1.0" encoding="utf-8"?>
<!-- Generator: Adobe Illustrator 15.1.0, SVG Export Plug-In . SVG Version: 6.00 Build 0)  -->
<!DOCTYPE svg PUBLIC "-//W3C//DTD SVG 1.0//EN" "http://www.w3.org/TR/2001/REC-SVG-20010904/DTD/svg10.dtd">
<svg version="1.0" id="Layer_1" xmlns="http://www.w3.org/2000/svg" xmlns:xlink="http://www.w3.org/1999/xlink" x="0px" y="0px"
	 width="170.079px" height="111.163px" viewBox="18.972 416.11 170.079 111.163"
	 enable-background="new 18.972 416.11 170.079 111.163" xml:space="preserve">
<path fill="#159FCE" d="M170.371,489.914c-8.732,0-16.044,5.999-18.09,14.096H89.94c2.101-2.608,3.996-5.905,5.536-10.075
	l15.855-43.298c4.399-10.469,11.788-11.683,16.961-11.683l23.891,0.044c1.911,8.287,9.319,14.473,18.187,14.473
	c10.317,0,18.68-8.363,18.68-18.681c0-10.316-8.363-18.68-18.68-18.68c-8.597,0-15.818,5.814-17.994,13.72l-24.075-0.044
	c-12.087,0-20.657,5.859-25.47,17.413l-15.96,43.571c-3.335,9.032-8.572,13.238-16.481,13.238H55.742
	c-2.046-8.097-9.358-14.096-18.089-14.096c-10.317,0-18.68,8.363-18.68,18.68c0,10.317,8.363,18.681,18.68,18.681
	c8.731,0,16.043-6,18.089-14.097H70.39h81.891c2.046,8.097,9.358,14.097,18.09,14.097c10.317,0,18.68-8.363,18.68-18.681
	C189.051,498.276,180.688,489.914,170.371,489.914z"/>
</svg>
