<?xml version="1.0" standalone="no"?>
<!DOCTYPE svg PUBLIC "-//W3C//DTD SVG 20010904//EN"
 "http://www.w3.org/TR/2001/REC-SVG-20010904/DTD/svg10.dtd">
<svg version="1.0" xmlns="http://www.w3.org/2000/svg"
 width="980.000000pt" height="980.000000pt" viewBox="0 0 980.000000 980.000000"
 preserveAspectRatio="xMidYMid meet">
<metadata>
Created by potrace 1.15, written by Peter Selinger 2001-2017
</metadata>
<g transform="translate(0.000000,980.000000) scale(0.100000,-0.100000)"
fill="#000000" stroke="none">
<path fill="#159FCE" d="M890 9788 c-167 -24 -374 -118 -515 -236 -191 -158 -333 -416 -365
-662 -8 -61 -10 -1217 -8 -4045 l3 -3960 22 -75 c59 -209 148 -366 282 -501
137 -136 300 -228 506 -283 l80 -21 4005 0 4005 0 89 24 c396 104 672 382 780
786 l21 80 0 3445 0 3445 -24 55 c-21 49 -131 162 -940 973 -829 831 -922 921
-981 950 l-65 32 -3415 1 c-2060 1 -3441 -2 -3480 -8z m1210 -2128 c0 -1609
-4 -1523 70 -1675 72 -147 178 -252 325 -321 147 -68 -9 -64 2405 -64 2401 0
2256 -4 2398 61 148 67 260 176 332 324 73 152 70 75 70 1602 l0 1368 700
-700 700 -700 -2 -3295 -3 -3295 -26 -56 c-37 -79 -90 -133 -167 -171 l-66
-33 -218 -3 -218 -3 0 1091 c0 1219 2 1176 -70 1325 -94 194 -263 326 -473
369 -68 14 -368 16 -2957 16 -3212 0 -2959 6 -3115 -70 -147 -72 -252 -178
-321 -325 -66 -142 -64 -108 -64 -1315 l0 -1091 -217 3 c-211 3 -220 4 -273
29 -82 39 -135 90 -172 167 l-33 67 0 3935 0 3935 26 55 c33 70 79 123 136
157 89 52 88 52 681 52 l552 1 0 -1440z m3500 555 c0 -592 4 -901 11 -934 36
-168 224 -294 391 -263 120 22 211 91 265 200 l28 57 3 913 3 912 349 0 350 0
0 -1400 0 -1400 -2100 0 -2100 0 0 1400 0 1400 1400 0 1400 0 0 -885z m2100
-6465 l0 -1050 -2800 0 -2800 0 0 1050 0 1050 2800 0 2800 0 0 -1050z"/>
</g>
</svg>
