<?xml version="1.0" encoding="utf-8"?>
<!-- Generator: Adobe Illustrator 15.1.0, SVG Export Plug-In . SVG Version: 6.00 Build 0)  -->
<!DOCTYPE svg PUBLIC "-//W3C//DTD SVG 1.0//EN" "http://www.w3.org/TR/2001/REC-SVG-20010904/DTD/svg10.dtd">
<svg version="1.0" id="Layer_1" xmlns="http://www.w3.org/2000/svg" xmlns:xlink="http://www.w3.org/1999/xlink" x="0px" y="0px"
	 width="170.079px" height="170.677px" viewBox="1.498 0 170.079 170.677" enable-background="new 1.498 0 170.079 170.677"
	 xml:space="preserve">
<path fill="#159FCE" d="M161.56,69.001c2.654,0.553,5.031,1.88,7.132,3.981c2.211,2.101,3.151,4.699,2.819,7.795v10.615
	c0,2.875-1.105,5.197-3.317,6.967c-2.323,1.879-4.755,3.096-7.298,3.649l-13.767,3.317l-1.659,4.644l-1.99,4.479l7.464,12.44
	c1.327,2.212,2.156,4.755,2.488,7.63c0.442,2.875-0.387,5.363-2.488,7.464l-7.464,7.464c-1.99,2.101-4.534,3.096-7.63,2.985
	c-3.096-0.221-5.695-1.05-7.795-2.488l-11.943-7.63c-1.438,0.774-2.93,1.493-4.478,2.156c-1.659,0.663-3.373,1.271-5.142,1.825
	l-3.151,13.767c-0.332,2.543-1.548,4.92-3.649,7.132c-2.101,2.322-4.589,3.483-7.464,3.483H81.612c-2.875,0-5.197-1.106-6.966-3.317
	c-1.88-2.323-3.096-4.755-3.649-7.298l-3.98-13.767c-1.77-0.664-3.483-1.327-5.142-1.99c-1.769-0.774-3.483-1.604-5.142-2.488
	l-12.274,7.961c-2.101,1.438-4.645,2.212-7.63,2.322c-3.096,0.221-5.695-0.774-7.796-2.985l-7.464-7.298
	c-2.101-2.212-2.986-4.7-2.654-7.464c0.442-2.875,1.327-5.474,2.654-7.795l7.795-12.938c-0.663-1.327-1.271-2.709-1.825-4.147
	l-1.658-4.313l-13.767-3.815c-2.543-0.442-4.921-1.548-7.132-3.317c-2.322-1.88-3.483-4.313-3.483-7.298V80.114
	c0-2.875,1.105-5.363,3.317-7.464c2.322-1.99,4.755-3.207,7.298-3.649l13.767-2.82c0.553-1.659,1.105-3.262,1.658-4.81
	s1.216-3.041,1.991-4.479L21.9,43.789c-1.327-2.212-2.156-4.755-2.488-7.63c-0.442-2.875,0.387-5.363,2.488-7.464l7.464-7.464
	c1.991-2.101,4.479-3.096,7.464-2.985c3.096,0.221,5.75,1.05,7.961,2.488l12.108,7.961l4.976-2.322
	c1.769-0.774,3.594-1.438,5.474-1.99l3.317-13.767c0.553-2.543,1.714-4.921,3.483-7.132C76.028,1.161,78.405,0,81.28,0h10.615
	c2.986,0,5.474,1.106,7.464,3.317c2.101,2.322,3.373,4.755,3.815,7.298l3.151,13.767c1.659,0.553,3.317,1.161,4.976,1.824
	c1.659,0.664,3.262,1.382,4.81,2.156l12.44-7.629c2.101-1.438,4.644-2.212,7.629-2.322c3.096-0.221,5.695,0.719,7.796,2.819
	l7.464,7.464c2.101,2.101,2.985,4.589,2.654,7.464c-0.442,2.875-1.327,5.418-2.654,7.629l-7.464,12.44
	c0.774,1.659,1.493,3.262,2.156,4.81c0.663,1.659,1.271,3.373,1.824,5.142L161.56,69.001z M161.726,80.943
	c-0.111-0.221-0.387-0.498-0.83-0.83c-0.442-0.221-0.94-0.387-1.493-0.498l-19.738-4.147l-1.825-5.971
	c-0.332-1.327-0.829-2.654-1.493-3.981c-0.663-1.327-1.327-2.709-1.99-4.146l-2.654-5.308l10.615-17.582
	c0.442-0.332,0.719-0.719,0.83-1.161c0.221-0.553,0.332-0.94,0.332-1.161l-6.966-6.967c-0.221,0-0.498,0.055-0.829,0.166
	l-1.327,0.664l-17.25,10.947l-5.474-2.986c-1.327-0.663-2.709-1.271-4.147-1.824c-1.438-0.664-2.82-1.216-4.146-1.659l-5.806-1.825
	l-4.478-20.236c-0.11-0.332-0.276-0.719-0.498-1.161l-0.332-0.663H82.109c-0.11,0.332-0.276,0.663-0.498,0.995
	c-0.221,0.442-0.387,0.995-0.498,1.659l-4.81,19.406l-5.64,1.659c-1.438,0.442-2.875,0.94-4.313,1.493
	c-1.438,0.664-2.875,1.382-4.312,2.157l-5.64,2.985L38.652,29.524c-0.332-0.11-0.608-0.221-0.829-0.332
	c-0.332-0.221-0.664-0.387-0.995-0.498l-6.967,6.967c0,0.221,0.056,0.553,0.166,0.995c0.221,0.553,0.498,1.106,0.83,1.659
	l10.947,17.914l-2.654,5.308c-0.664,1.548-1.271,2.931-1.825,4.147s-0.996,2.433-1.327,3.649l-1.824,5.806l-20.236,4.478
	c-0.442,0.111-0.83,0.277-1.161,0.498s-0.553,0.332-0.664,0.332l0,0l0,0v10.118l0.995,0.498l1.659,0.498l19.572,4.81l1.824,4.976
	l1.327,3.649l1.659,3.649l2.654,5.308l-10.947,18.245c-0.332,0.442-0.553,0.885-0.664,1.327c-0.221,0.442-0.332,0.774-0.332,0.995
	l6.967,6.966c0.221,0,0.498-0.055,0.829-0.166c0.442-0.111,0.83-0.332,1.161-0.664L56.4,129.541l5.64,2.986
	c1.438,0.774,2.875,1.438,4.312,1.99c1.438,0.663,2.875,1.216,4.313,1.659l5.64,1.824l4.976,19.738l1.161,2.322h9.454
	c0.221-0.11,0.442-0.332,0.664-0.664c0.221-0.442,0.387-0.94,0.498-1.493l4.479-19.904l5.805-1.493l3.981-1.658l3.981-1.825
	l5.64-2.985l17.416,11.113c0.332,0.221,0.608,0.387,0.83,0.498c0.332,0.11,0.719,0.221,1.161,0.332l6.8-6.801
	c0-0.332-0.055-0.719-0.166-1.161c-0.221-0.553-0.497-1.05-0.829-1.493l-10.45-17.582l2.654-5.308
	c0.664-1.327,1.272-2.599,1.825-3.815c0.553-1.216,1.051-2.488,1.493-3.815l1.825-5.64l19.572-4.976
	c0.553-0.221,0.995-0.442,1.327-0.663c0.442-0.221,0.83-0.387,1.161-0.498L161.726,80.943z M86.92,53.409
	c4.423,0,8.57,0.829,12.44,2.488c3.981,1.659,7.409,3.925,10.284,6.8c2.875,2.986,5.142,6.414,6.801,10.284
	c1.77,3.87,2.654,8.017,2.654,12.44c0,4.534-0.829,8.736-2.488,12.606c-1.769,3.871-4.091,7.243-6.966,10.118
	c-2.875,2.986-6.248,5.308-10.118,6.967c-3.981,1.659-8.183,2.488-12.606,2.488c-4.423,0-8.57-0.83-12.44-2.488
	c-3.981-1.659-7.409-3.926-10.284-6.801c-2.875-2.985-5.142-6.414-6.8-10.284c-1.77-3.871-2.654-8.072-2.654-12.606
	c0-4.422,0.829-8.569,2.488-12.44c1.77-3.87,4.091-7.298,6.967-10.284c2.875-2.875,6.247-5.142,10.118-6.801
	C78.294,54.238,82.497,53.409,86.92,53.409L86.92,53.409z M86.92,106.653c5.861,0,10.836-2.046,14.928-6.137
	c4.202-4.202,6.303-9.233,6.303-15.094c0-5.75-2.046-10.726-6.137-14.928c-4.202-4.202-9.233-6.303-15.094-6.303
	c-5.86,0-10.836,2.101-14.928,6.303c-4.202,4.202-6.303,9.178-6.303,14.928c0,5.861,2.045,10.837,6.137,14.928
	C76.028,104.552,81.059,106.652,86.92,106.653L86.92,106.653L86.92,106.653z"/>
</svg>
