<?xml version="1.0" encoding="utf-8"?>
<!-- Generator: Adobe Illustrator 15.1.0, SVG Export Plug-In . SVG Version: 6.00 Build 0)  -->
<!DOCTYPE svg PUBLIC "-//W3C//DTD SVG 1.0//EN" "http://www.w3.org/TR/2001/REC-SVG-20010904/DTD/svg10.dtd">
<svg version="1.0" id="Layer_1" xmlns="http://www.w3.org/2000/svg" xmlns:xlink="http://www.w3.org/1999/xlink" x="0px" y="0px"
	 width="170.079px" height="110.025px" viewBox="0 0 170.079 110.025" enable-background="new 0 0 170.079 110.025"
	 xml:space="preserve">
<g>
	<path fill="#159FCE" d="M85.04,18.039c-20.388,0-36.974,16.586-36.974,36.974c0,20.387,16.586,36.974,36.974,36.974
		c20.387,0,36.974-16.586,36.974-36.974C122.013,34.625,105.427,18.039,85.04,18.039z M85.04,82.575
		c-15.198,0-27.563-12.364-27.563-27.562c0-15.198,12.365-27.563,27.563-27.563s27.562,12.364,27.562,27.563
		C112.602,70.21,100.237,82.575,85.04,82.575z"/>
	<path fill="#159FCE" d="M145.438,21.197C135.26,13.281,114.069,0,86.496,0C58.521,0,36.731,12.713,26.232,20.292
		C10.297,31.794,0,45.907,0,56.245c0,10.407,10.092,23.74,26.339,34.796c10.419,7.09,32.088,18.984,60.157,18.984
		c27.632,0,48.725-12.459,58.838-19.886c15.032-11.039,24.745-24.342,24.745-33.894C170.079,46.745,160.176,32.661,145.438,21.197z
		 M139.764,82.553c-9.185,6.745-28.319,18.06-53.268,18.06c-43.722,0-77.084-31.502-77.084-44.368
		c0-13.202,34.182-46.833,77.084-46.833c24.763,0,43.938,12.038,53.164,19.214c14.489,11.27,21.007,22.936,21.007,27.619
		C160.667,61.557,153.341,72.583,139.764,82.553z"/>
	<circle fill="#159FCE" cx="85.04" cy="55.012" r="9.075"/>
</g>
</svg>
