<?xml version="1.0" encoding="utf-8"?>
<!-- Generator: Adobe Illustrator 22.0.0, SVG Export Plug-In . SVG Version: 6.00 Build 0)  -->
<svg version="1.1" id="Layer_1" xmlns="http://www.w3.org/2000/svg" xmlns:xlink="http://www.w3.org/1999/xlink" x="0px" y="0px"
	 viewBox="0 0 477.4 255.1" style="enable-background:new 0 0 477.4 255.1;" xml:space="preserve">
<style type="text/css">
	.st0{fill:#F0402E;}
	.st1{fill:#26A957;}
	.st2{fill:#FF8207;}
</style>
<g>
	<rect x="222.2" class="st0" width="21.9" height="10"/>
	<path class="st0" d="M297,20.9c0-3.3,0-6.6,0-10c3.7,0,7.3,0,11,0c0,3.3,0,6.6,0,10C304.3,20.9,300.6,20.9,297,20.9z"/>
	<polygon class="st0" points="392.7,95.7 381.7,95.7 381.7,117.6 360.8,127.6 360.8,148.5 348.8,136.5 338.8,117.6 328.9,126.6 
		328.9,138.5 318.9,138.5 307.9,116.6 297,116.6 297,127.6 265.1,158.5 265.1,181.4 254.1,202.3 244.2,202.3 222.2,180.4 
		222.2,148.5 200.3,148.5 190.3,138.5 190.3,116.6 201.3,106.6 201.3,84.7 212.3,84.7 212.3,73.8 222.2,64.8 222.2,52.8 243.2,31.9 
		275.1,42.9 361.8,11 371.7,21.9 391.7,31.9 456.4,31.9 456.4,52.8 435.5,62.8 435.5,74.8 424.6,74.7 424.6,63.8 403.6,63.8 
		403.6,74.7 413.6,74.7 413.6,106.6 392.7,106.6 	"/>
	<path class="st0" d="M297,20.9c0,3.7,0,7.3,0,11c-3.7,0-7.3,0-11,0c0-0.8,0-11,0-11C286,20.9,295.6,20.9,297,20.9z"/>
	<path class="st1" d="M126.6,42.9c3.7,0,7.3,0,11,0c0,0.7,0,1.3,0,2c0,1,0,2,0,3c0,0.7,0,1.3,0,2c0,1,0,2,0,3c-3.7,0-7.3,0-11,0
		c0-2.3,0-4.7,0-7C126.6,44.8,126.6,43.9,126.6,42.9z"/>
	<path class="st1" d="M180.4,42.9h10v10h-10V42.9L180.4,42.9z M116.6,31.9l4.8-11h20l17.1,42.9h11V41.9l20.9-10v-11L169.4,0h-11
		l-19.9,11H94.7l-10,10v11h-11v-11l-10.9,0l0,10.9h-10v11L9,42.9L0,53.8l11,19.9l10-10l31.9,20.9v21.9l21.9,21.9l40.9,20.9
		l-19.9,21.9l8,16.9l13,12.9v53.8h9l22.9-42.8h11l10-29.9v-12l-61.8-31.9h18.9v-11H94.7v-10.9h21.9l31.9-31.9v-10l-21.9-11l-10,11
		h-11l-10-10l12,0.4l-11-22.3h9v-11H116.6v11h10v-11H116.6z"/>
	<polygon class="st0" points="212.3,73.8 212.3,74.7 201.3,74.7 201.3,63.8 212.3,63.8 	"/>
	<rect x="392.7" y="116.6" class="st0" width="10.9" height="11"/>
	<path class="st0" d="M371.7,127.6c0.3,0,0.7,0,1,0c3,0,6,0,9,0c0,7,0,13.9,0,20.9c-1,0-2,0-3,0c-0.7,0-1.3,0-2,0c-1,0-2,0-3,0
		c-0.7,0-1.3,0-2,0C371.7,141.5,371.7,134.5,371.7,127.6z"/>
	<rect x="360.8" y="159.5" class="st2" width="11" height="11"/>
	<rect x="381.7" y="159.5" class="st2" width="11" height="11"/>
	<rect x="403.6" y="159.5" class="st2" width="31.9" height="11"/>
	<path class="st0" d="M276.1,170.4c1.3,0,2.7,0,4,0c0.7,0,1.3,0,2,0c1.3,0,2.7,0,4,0c0,7,0,13.9,0,20.9c-1,0-2,0-3,0
		c-0.7,0-1.3,0-2,0c-1,0-2,0-3,0c-0.7,0-1.3,0-2,0C276.1,184.4,276.1,177.4,276.1,170.4z"/>
	<path class="st2" d="M371.7,170.4c3.3,0,6.6,0,10,0c0,3.3,0,6.6,0,10c-3.3,0-6.6,0-10,0C371.7,177.1,371.7,173.7,371.7,170.4z"/>
	<rect x="435.5" y="170.4" class="st2" width="10" height="10"/>
	<polygon class="st2" points="435.5,223.2 413.6,212.3 392.7,223.2 382.7,191.3 403.6,180.4 424.6,180.4 445.5,201.3 	"/>
	<path class="st2" d="M467.4,223.2c0-3.7,0-7.3,0-11c3.3,0,6.6,0,10,0c0,3.7,0,7.3,0,11C474,223.2,470.7,223.2,467.4,223.2z"/>
	<polygon class="st2" points="467.4,223.2 467.4,234.1 456.4,234.2 456.4,223.2 	"/>
</g>
</svg>
