<?xml version="1.0" encoding="utf-8"?>
<!-- Generator: Adobe Illustrator 15.1.0, SVG Export Plug-In . SVG Version: 6.00 Build 0)  -->
<!DOCTYPE svg PUBLIC "-//W3C//DTD SVG 1.1//EN" "http://www.w3.org/Graphics/SVG/1.1/DTD/svg11.dtd">
<svg version="1.1" id="Layer_1" xmlns="http://www.w3.org/2000/svg" xmlns:xlink="http://www.w3.org/1999/xlink" x="0px" y="0px"
	 width="42.371px" height="22.645px" viewBox="0 0 42.371 22.645" enable-background="new 0 0 42.371 22.645" xml:space="preserve">
<g>
	<rect x="19.726" fill-rule="evenodd" clip-rule="evenodd" fill="#d65d5e" width="1.946" height="0.885"/>
	<path fill-rule="evenodd" clip-rule="evenodd" fill="#d65d5e" d="M26.359,1.857c0-0.295,0-0.59,0-0.885c0.324,0,0.649,0,0.974,0
		c0,0.295,0,0.59,0,0.885C27.009,1.857,26.684,1.857,26.359,1.857z"/>
	<polygon fill-rule="evenodd" clip-rule="evenodd" fill="#d65d5e" points="34.852,8.492 33.879,8.492 33.879,10.438 32.021,11.322 
		32.021,13.18 30.959,12.118 30.075,10.438 29.19,11.234 29.19,12.296 28.307,12.296 27.333,10.35 26.359,10.35 26.359,11.322 
		23.529,14.064 23.529,16.1 22.557,17.957 21.672,17.957 19.726,16.011 19.726,13.18 17.779,13.18 16.895,12.296 16.895,10.35 
		17.868,9.465 17.868,7.519 18.841,7.519 18.841,6.546 19.726,5.75 19.726,4.688 21.583,2.831 24.414,3.804 32.109,0.973 
		32.994,1.946 34.764,2.831 40.513,2.831 40.513,4.688 38.655,5.572 38.655,6.639 37.683,6.634 37.683,5.661 35.824,5.661 
		35.824,6.634 36.709,6.634 36.709,9.465 34.852,9.465 	"/>
	<path fill-rule="evenodd" clip-rule="evenodd" fill="#d65d5e" d="M26.359,1.857c0,0.324,0,0.648,0,0.974c-0.324,0-0.648,0-0.973,0
		c0-0.074-0.002-0.974-0.001-0.975C25.388,1.854,26.238,1.857,26.359,1.857z"/>
	<path fill-rule="evenodd" clip-rule="evenodd" fill="#6fb678" d="M11.234,3.804c0.324,0,0.649,0,0.973,0c0,0.059,0,0.118,0,0.177
		c0,0.089,0,0.177,0,0.266c0,0.059,0,0.118,0,0.177c0,0.089,0,0.177,0,0.266c-0.324,0-0.649,0-0.973,0c0-0.207,0-0.413,0-0.619
		C11.234,3.98,11.234,3.893,11.234,3.804z"/>
	<path fill-rule="evenodd" clip-rule="evenodd" fill="#6fb678" d="M16.011,3.804h0.884v0.885h-0.884V3.804L16.011,3.804z
		 M10.35,2.831l0.425-0.974h1.775l1.514,3.804h0.973V3.715l1.858-0.884V1.857L15.037,0h-0.973l-1.769,0.973H8.403L7.519,1.857v0.974
		H6.546V1.857L5.575,1.86L5.573,2.831H4.688v0.973L0.796,3.805L0,4.776l0.973,1.77l0.885-0.885l2.831,1.857v1.946l1.946,1.946
		l3.626,1.857l-1.769,1.946l0.708,1.504l1.15,1.149v4.776h0.796l2.035-3.803h0.973l0.884-2.654v-1.062l-5.484-2.83h1.681v-0.974
		H8.403V10.35h1.946l2.831-2.831V6.635l-1.946-0.974L10.35,6.635H9.376L8.492,5.75L9.56,5.784l-0.98-1.98h0.796V2.831H10.35v0.973
		h0.884V2.831H10.35z"/>
	<polygon fill-rule="evenodd" clip-rule="evenodd" fill="#d65d5e" points="18.841,6.546 18.841,6.634 17.868,6.634 17.868,5.661 
		18.841,5.661 	"/>
	<rect x="34.853" y="10.35" fill-rule="evenodd" clip-rule="evenodd" fill="#d65d5e" width="0.971" height="0.973"/>
	<path fill-rule="evenodd" clip-rule="evenodd" fill="#d65d5e" d="M32.994,11.322c0.029,0,0.059,0,0.088,0c0.266,0,0.531,0,0.797,0
		c0,0.619,0,1.238,0,1.857c-0.089,0-0.178,0-0.266,0c-0.059,0-0.117,0-0.177,0c-0.089,0-0.177,0-0.266,0c-0.059,0-0.118,0-0.177,0
		C32.994,12.561,32.994,11.941,32.994,11.322z"/>
	<rect x="32.021" y="14.153" fill-rule="evenodd" clip-rule="evenodd" fill="#dc7c5a" width="0.973" height="0.973"/>
	<rect x="33.879" y="14.153" fill-rule="evenodd" clip-rule="evenodd" fill="#dc7c5a" width="0.973" height="0.973"/>
	<rect x="35.824" y="14.153" fill-rule="evenodd" clip-rule="evenodd" fill="#dc7c5a" width="2.831" height="0.973"/>
	<path fill-rule="evenodd" clip-rule="evenodd" fill="#d65d5e" d="M24.502,15.126c0.118,0,0.236,0,0.354,0c0.06,0,0.119,0,0.178,0
		c0.117,0,0.236,0,0.354,0c0,0.619,0,1.238,0,1.857c-0.088,0-0.177,0-0.266,0c-0.059,0-0.117,0-0.177,0c-0.089,0-0.177,0-0.265,0
		c-0.06,0-0.119,0-0.178,0C24.502,16.364,24.502,15.745,24.502,15.126z"/>
	<path fill-rule="evenodd" clip-rule="evenodd" fill="#dc7c5a" d="M32.994,15.126c0.295,0,0.59,0,0.885,0c0,0.295,0,0.59,0,0.885
		c-0.295,0-0.59,0-0.885,0C32.994,15.716,32.994,15.421,32.994,15.126z"/>
	<rect x="38.655" y="15.126" fill-rule="evenodd" clip-rule="evenodd" fill="#dc7c5a" width="0.884" height="0.885"/>
	<polygon fill-rule="evenodd" clip-rule="evenodd" fill="#dc7c5a" points="38.655,19.814 36.709,18.842 34.852,19.814 
		33.967,16.983 35.824,16.011 37.683,16.011 39.539,17.868 	"/>
	<path fill-rule="evenodd" clip-rule="evenodd" fill="#dc7c5a" d="M41.486,19.814c0-0.324,0-0.648,0-0.973c0.295,0,0.59,0,0.885,0
		c0,0.324,0,0.648,0,0.973C42.076,19.814,41.781,19.814,41.486,19.814z"/>
	<polygon fill-rule="evenodd" clip-rule="evenodd" fill="#dc7c5a" points="41.486,19.814 41.486,20.781 40.513,20.787 
		40.513,19.814 	"/>
</g>
</svg>
