<?xml version="1.0" encoding="utf-8"?>
<!-- Generator: Adobe Illustrator 15.1.0, SVG Export Plug-In . SVG Version: 6.00 Build 0)  -->
<!DOCTYPE svg PUBLIC "-//W3C//DTD SVG 1.1//EN" "http://www.w3.org/Graphics/SVG/1.1/DTD/svg11.dtd">
<svg version="1.1" id="Layer_1" xmlns="http://www.w3.org/2000/svg" xmlns:xlink="http://www.w3.org/1999/xlink" x="0px" y="0px"
	 width="28.911px" height="28.911px" viewBox="0 0 28.911 28.911" enable-background="new 0 0 28.911 28.911" xml:space="preserve">
<g>
	<g>
		<path fill-rule="evenodd" clip-rule="evenodd" fill="#19A0CD" d="M0.001,14.431C0.001,14.438,0,14.447,0,14.456
			c0,0.008,0.001,0.016,0.001,0.024V14.431z"/>
		<path fill-rule="evenodd" clip-rule="evenodd" fill="#19A0CD" d="M14.137,13.771l9.068-10.808C20.773,1.106,17.739,0,14.457,0
			C6.723,0,0.375,6.127,0.017,13.771H14.137z"/>
	</g>
	<g>
		<path fill-rule="evenodd" clip-rule="evenodd" fill="#EDB240" d="M0.001,14.456L0.001,14.456c-0.001,0.008,0,0.016,0,0.024V14.456
			z"/>
		<path fill-rule="evenodd" clip-rule="evenodd" fill="#EDB240" d="M24.259,3.836L15.184,14.65l2.451,13.905
			c6.454-1.448,11.276-7.21,11.276-14.1C28.911,10.411,27.215,6.563,24.259,3.836z"/>
	</g>
	<g>
		<path fill-rule="evenodd" clip-rule="evenodd" fill="#DE4F69" d="M0.001,14.456L0.001,14.456c-0.001,0.008,0,0.016,0,0.024V14.456
			z"/>
		<path fill-rule="evenodd" clip-rule="evenodd" fill="#DE4F69" d="M13.884,15.139H0.017C0.374,22.805,6.7,28.911,14.456,28.911
			c0.613,0,1.223-0.052,1.831-0.131L13.884,15.139z"/>
	</g>
</g>
</svg>
