<?xml version="1.0" encoding="utf-8"?>
<!-- Generator: Adobe Illustrator 22.0.0, SVG Export Plug-In . SVG Version: 6.00 Build 0)  -->
<svg version="1.1" id="Layer_1" xmlns="http://www.w3.org/2000/svg" xmlns:xlink="http://www.w3.org/1999/xlink" x="0px" y="0px"
	 viewBox="0 0 256.1 256.1" style="enable-background:new 0 0 256.1 256.1;" xml:space="preserve">
<style type="text/css">
	.st0{fill-rule:evenodd;clip-rule:evenodd;fill:#26A957;}
	.st1{fill-rule:evenodd;clip-rule:evenodd;fill:#FF8207;}
	.st2{fill-rule:evenodd;clip-rule:evenodd;fill:#F0402E;}
</style>
<g>
	<g>
		<g>
			<path class="st0" d="M0,127.8c0,0.1,0,0.1,0,0.2c0,0.1,0,0.1,0,0.2V127.8z"/>
			<path class="st0" d="M125.2,122l80.3-95.7C184,9.8,157.1,0,128,0C59.5,0,3.3,54.3,0.2,122H125.2z"/>
		</g>
	</g>
	<g>
		<g>
			<path class="st1" d="M0,128L0,128c0,0.1,0,0.1,0,0.2V128z"/>
			<path class="st1" d="M214.9,34l-80.4,95.8l21.7,123.2c57.2-12.8,99.9-63.9,99.9-124.9C256.1,92.2,241,58.1,214.9,34z"/>
		</g>
	</g>
	<g>
		<g>
			<path class="st2" d="M0,128L0,128c0,0.1,0,0.1,0,0.2V128z"/>
			<path class="st2" d="M123,134.1H0.2c3.2,67.9,59.2,122,127.9,122c5.4,0,10.8-0.5,16.2-1.2L123,134.1z"/>
		</g>
	</g>
</g>
</svg>
