<?xml version="1.0" encoding="utf-8"?>
<!-- Generator: Adobe Illustrator 22.0.0, SVG Export Plug-In . SVG Version: 6.00 Build 0)  -->
<svg version="1.1" id="Layer_1" xmlns="http://www.w3.org/2000/svg" xmlns:xlink="http://www.w3.org/1999/xlink" x="0px" y="0px"
	 viewBox="0 0 304 283.5" style="enable-background:new 0 0 304 283.5;" xml:space="preserve">
<style type="text/css">
	.st0{fill-rule:evenodd;clip-rule:evenodd;fill:#FF8207;}
	.st1{fill-rule:evenodd;clip-rule:evenodd;fill:#F0402E;}
</style>
<g>
	<polygon class="st0" points="24.1,283.5 24.1,84.9 47.4,84.9 47.4,283.5 24.1,283.5 	"/>
	<polygon class="st1" points="178.1,255.1 178.1,62.1 201.3,62.1 201.3,255.1 178.1,255.1 	"/>
	<polygon class="st0" points="98.2,231.8 98.2,57.7 121.5,57.7 121.5,231.8 98.2,231.8 	"/>
	<polygon class="st0" points="256.6,218.4 256.6,0 279.9,0 279.9,218.4 256.6,218.4 	"/>
	<polygon class="st0" points="36.7,141.4 0,141.4 0,118.1 36.7,118.1 36.7,141.4 	"/>
	<polygon class="st1" points="190.6,255.1 154,255.1 154,231.8 190.6,231.8 190.6,255.1 	"/>
	<polygon class="st0" points="110.8,195.5 74.2,195.5 74.2,172.2 110.8,172.2 110.8,195.5 	"/>
	<polygon class="st0" points="269.2,46.6 232.6,46.6 232.6,23.3 269.2,23.3 269.2,46.6 	"/>
	<polygon class="st0" points="71.4,283.5 35.7,283.5 35.7,260.2 71.4,260.2 71.4,283.5 	"/>
	<polygon class="st1" points="225.4,109.4 189.7,109.4 189.7,86.1 225.4,86.1 225.4,109.4 	"/>
	<polygon class="st0" points="145.6,81 109.9,81 109.9,57.7 145.6,57.7 145.6,81 	"/>
	<polygon class="st0" points="304,218.4 268.3,218.4 268.3,195.2 304,195.2 304,218.4 	"/>
</g>
</svg>
